<svg id="Layer_1" data-name="Layer 1" xmlns="http://www.w3.org/2000/svg" xmlns:xlink="http://www.w3.org/1999/xlink" viewBox="0 0 569 193.98"><defs><style>.cls-1{fill:#27282c;}.cls-2{fill:url(#linear-gradient);}.cls-3{fill:#fff;}.cls-4{fill:none;}</style><linearGradient id="linear-gradient" x1="144.75" y1="-1532.93" x2="47.78" y2="-1629.91" gradientTransform="matrix(1, 0, 0, -1, 0.74, -1483.28)" gradientUnits="userSpaceOnUse"><stop offset="0" stop-color="#e44857"/><stop offset="0.47" stop-color="#c711e1"/><stop offset="1" stop-color="#7f52ff"/></linearGradient></defs><polygon class="cls-1" points="262.35 49.4 242.89 49.4 200.94 94.4 200.94 49.71 185.44 49.71 185.44 146.64 200.94 146.64 200.94 99.81 243.2 146.64 262.95 146.64 218.27 96.52 262.35 49.4"/><path class="cls-1" d="M314.94,78.9A38.21,38.21,0,0,0,296.39,74a35.4,35.4,0,0,0-18.84,4.87A35.9,35.9,0,0,0,264.47,92a40.37,40.37,0,0,0-4.56,19.15,39.53,39.53,0,0,0,4.56,19.15,31.88,31.88,0,0,0,13.08,13.08,38.57,38.57,0,0,0,18.84,4.87,35.42,35.42,0,0,0,18.84-4.87A33.19,33.19,0,0,0,328,130.28a41.25,41.25,0,0,0-.31-38.3A32.5,32.5,0,0,0,314.94,78.9Zm-1.21,44.63a19.26,19.26,0,0,1-7.29,8.21,18.22,18.22,0,0,1-10.63,3,19.87,19.87,0,0,1-10.95-3,23.82,23.82,0,0,1-7.29-8.21c-1.83-3.65-2.43-7.61-2.43-12.17a25.65,25.65,0,0,1,2.74-12.17,19.29,19.29,0,0,1,7.29-8.2,18.49,18.49,0,0,1,10.95-3,18.07,18.07,0,0,1,10.63,3,23.83,23.83,0,0,1,7.3,8.2,26.49,26.49,0,0,1,2.42,12.17A26.48,26.48,0,0,1,313.73,123.53Z"/><path class="cls-1" d="M363.89,57.92H349V70.09c0,1.82-.31,3.34-1.51,4.25a6,6,0,0,1-4.25,1.51h-7.3V88.62H348.7v38.3a23.79,23.79,0,0,0,2.43,10.64,15.46,15.46,0,0,0,7,7c3.05,1.83,6.39,2.43,10.64,2.43h11.54V133.6h-8.52a6.56,6.56,0,0,1-5.47-2.43,9.74,9.74,0,0,1-2.13-6.07V88.62h16.41V75.85H364.17V57.92Z"/><rect class="cls-1" x="392.17" y="45.76" width="15.19" height="100.88"/><rect class="cls-1" x="424.69" y="46.07" width="15.5" height="15.81"/><rect class="cls-1" x="424.69" y="75.85" width="15.19" height="71.08"/><path class="cls-1" d="M517.42,87.4a21.73,21.73,0,0,0-9.12-9.72A25.63,25.63,0,0,0,494.62,74,28.87,28.87,0,0,0,480,78a27.45,27.45,0,0,0-8.21,8.51V75.56H457.23v71.08h15.19V106.8a22.24,22.24,0,0,1,2.14-10.34,19.38,19.38,0,0,1,6.07-7,19,19,0,0,1,9.43-2.42,14.32,14.32,0,0,1,8.21,2.13A13.48,13.48,0,0,1,503.43,95a19.8,19.8,0,0,1,1.82,8.81v42.56h15.2V102A28.11,28.11,0,0,0,517.42,87.4Z"/><g id="Logotypes"><polygon class="cls-2" points="145.48 146.29 48.5 146.29 48.5 49.37 145.48 49.37 96.99 97.8 145.48 146.29"/></g><path id="path80319" class="cls-3" d="M81.58,116.79l11.18,6.44A1.31,1.31,0,1,0,94.07,121l-11.31-6.53a40.83,40.83,0,0,0,0-33.26l11.31-6.54a1.31,1.31,0,0,0-1.31-2.27L81.58,78.81A38.55,38.55,0,0,0,51.12,59v77.72A38.43,38.43,0,0,0,81.58,116.79ZM62.05,80a3.26,3.26,0,1,1,3.26,3.25A3.25,3.25,0,0,1,62.05,80Zm0,35.68a3.26,3.26,0,1,1,3.26,3.25A3.25,3.25,0,0,1,62.05,115.67Z"/><rect class="cls-4" x="-0.24" y="82.13" width="48.5" height="35.72"/></svg>