<?xml version="1.0" encoding="UTF-8" standalone="no"?>
<svg
   id="Layer_1"
   data-name="Layer 1"
   viewBox="0 0 472.0072 101.23001"
   version="1.1"
   sodipodi:docname="kotlin.svg"
   width="472.0072"
   height="101.23"
   inkscape:version="1.1.2 (b8e25be833, 2022-02-05)"
   xmlns:inkscape="http://www.inkscape.org/namespaces/inkscape"
   xmlns:sodipodi="http://sodipodi.sourceforge.net/DTD/sodipodi-0.dtd"
   xmlns="http://www.w3.org/2000/svg"
   xmlns:svg="http://www.w3.org/2000/svg">
  <sodipodi:namedview
     id="namedview34"
     pagecolor="#ffffff"
     bordercolor="#666666"
     borderopacity="1.0"
     inkscape:pageshadow="2"
     inkscape:pageopacity="0.0"
     inkscape:pagecheckerboard="0"
     showgrid="false"
     inkscape:zoom="2.2003515"
     inkscape:cx="235.64417"
     inkscape:cy="51.128195"
     inkscape:window-width="1920"
     inkscape:window-height="1013"
     inkscape:window-x="-9"
     inkscape:window-y="-9"
     inkscape:window-maximized="1"
     inkscape:current-layer="Layer_1" />
  <defs
     id="defs11">
    <style
       id="style2">.cls-1{fill:#27282c;}.cls-2{fill:url(#linear-gradient);}.cls-3{fill:#fff;}.cls-4{fill:none;}</style>
    <linearGradient
       id="linear-gradient"
       x1="144.75"
       y1="-1532.9301"
       x2="47.779999"
       y2="-1629.91"
       gradientTransform="matrix(1,0,0,-1,0.74,-1483.28)"
       gradientUnits="userSpaceOnUse">
      <stop
         offset="0"
         stop-color="#e44857"
         id="stop4" />
      <stop
         offset="0.47"
         stop-color="#c711e1"
         id="stop6" />
      <stop
         offset="1"
         stop-color="#7f52ff"
         id="stop8" />
    </linearGradient>
  </defs>
  <polygon
     class="cls-1"
     points="200.94,94.4 200.94,49.71 185.44,49.71 185.44,146.64 200.94,146.64 200.94,99.81 243.2,146.64 262.95,146.64 218.27,96.52 262.35,49.4 242.89,49.4 "
     id="polygon13"
     transform="translate(-48.5,-45.759998)" />
  <path
     class="cls-1"
     d="m 266.44,33.140002 a 38.21,38.21 0 0 0 -18.55,-4.9 35.4,35.4 0 0 0 -18.84,4.87 35.9,35.9 0 0 0 -13.08,13.13 40.37,40.37 0 0 0 -4.56,19.15 39.53,39.53 0 0 0 4.56,19.15 31.88,31.88 0 0 0 13.08,13.08 38.57,38.57 0 0 0 18.84,4.869998 35.42,35.42 0 0 0 18.84,-4.869998 33.19,33.19 0 0 0 12.77,-13.1 41.25,41.25 0 0 0 -0.31,-38.3 32.5,32.5 0 0 0 -12.75,-13.08 z m -1.21,44.63 a 19.26,19.26 0 0 1 -7.29,8.21 18.22,18.22 0 0 1 -10.63,3 19.87,19.87 0 0 1 -10.95,-3 23.82,23.82 0 0 1 -7.29,-8.21 c -1.83,-3.65 -2.43,-7.61 -2.43,-12.17 a 25.65,25.65 0 0 1 2.74,-12.17 19.29,19.29 0 0 1 7.29,-8.2 18.49,18.49 0 0 1 10.95,-3 18.07,18.07 0 0 1 10.63,3 23.83,23.83 0 0 1 7.3,8.2 26.49,26.49 0 0 1 2.42,12.17 26.48,26.48 0 0 1 -2.74,12.17 z"
     id="path15" />
  <path
     class="cls-1"
     d="M 315.39,12.160002 H 300.5 v 12.17 c 0,1.82 -0.31,3.34 -1.51,4.25 a 6,6 0 0 1 -4.25,1.51 h -7.3 v 12.77 h 12.76 v 38.3 a 23.79,23.79 0 0 0 2.43,10.64 15.46,15.46 0 0 0 7,7 C 312.68,100.63 316.02,101.23 320.27,101.23 h 11.54 V 87.840002 h -8.52 a 6.56,6.56 0 0 1 -5.47,-2.43 9.74,9.74 0 0 1 -2.13,-6.07 v -36.48 h 16.41 v -12.77 h -16.43 v -17.93 z"
     id="path17" />
  <rect
     class="cls-1"
     x="343.67001"
     y="0"
     width="15.19"
     height="100.88"
     id="rect19" />
  <rect
     class="cls-1"
     x="376.19"
     y="0.31000137"
     width="15.5"
     height="15.81"
     id="rect21" />
  <rect
     class="cls-1"
     x="376.19"
     y="30.09"
     width="15.19"
     height="71.080002"
     id="rect23" />
  <path
     class="cls-1"
     d="m 468.92,41.640002 a 21.73,21.73 0 0 0 -9.12,-9.72 25.63,25.63 0 0 0 -13.68,-3.68 28.87,28.87 0 0 0 -14.62,4 27.45,27.45 0 0 0 -8.21,8.51 v -10.95 H 408.73 V 100.88 h 15.19 V 61.040002 a 22.24,22.24 0 0 1 2.14,-10.34 19.38,19.38 0 0 1 6.07,-7 19,19 0 0 1 9.43,-2.42 14.32,14.32 0 0 1 8.21,2.13 13.48,13.48 0 0 1 5.16,5.83 19.8,19.8 0 0 1 1.82,8.81 V 100.61 h 15.2 V 56.240002 a 28.11,28.11 0 0 0 -3.03,-14.6 z"
     id="path25" />
  <g
     id="Logotypes"
     transform="translate(-48.5,-45.759998)">
    <polygon
       class="cls-2"
       points="48.5,49.37 145.48,49.37 96.99,97.8 145.48,146.29 48.5,146.29 "
       id="polygon27"
       style="fill:url(#linear-gradient)" />
  </g>
  <path
     id="path80319"
     class="cls-3"
     d="m 33.08,71.030002 11.18,6.44 a 1.31,1.31 0 1 0 1.31,-2.23 l -11.31,-6.53 a 40.83,40.83 0 0 0 0,-33.26 l 11.31,-6.54 a 1.3104389,1.3104389 0 0 0 -1.31,-2.27 l -11.18,6.41 a 38.55,38.55 0 0 0 -30.46,-19.81 v 77.72 a 38.43,38.43 0 0 0 30.46,-19.93 z m -19.53,-36.79 a 3.26,3.26 0 1 1 3.26,3.25 3.25,3.25 0 0 1 -3.26,-3.25 z m 0,35.68 a 3.26,3.26 0 1 1 3.26,3.25 3.25,3.25 0 0 1 -3.26,-3.26 z" />
  <rect
     class="cls-4"
     x="-48.740002"
     y="36.369999"
     width="48.5"
     height="35.720001"
     id="rect31" />
</svg>
